<?xml version="1.0" standalone="no"?>
<!DOCTYPE svg PUBLIC "-//W3C//DTD SVG 20010904//EN"
 "http://www.w3.org/TR/2001/REC-SVG-20010904/DTD/svg10.dtd">
<svg version="1.0" xmlns="http://www.w3.org/2000/svg"
 width="512.000000pt" height="512.000000pt" viewBox="0 0 512.000000 512.000000"
 preserveAspectRatio="xMidYMid meet">

<g transform="translate(0.000000,512.000000) scale(0.100000,-0.100000)"
fill="#a6adb4" stroke="none">
<path d="M2500 5110 c-68 -15 -160 -64 -212 -114 -99 -95 -136 -186 -145 -358
l-6 -117 -248 -3 c-272 -3 -272 -3 -323 -72 -21 -27 -21 -34 -21 -981 0 -947
0 -954 21 -981 11 -15 33 -37 48 -48 27 -21 36 -21 969 -24 1052 -2 985 -7
1034 67 l23 34 0 952 0 952 -23 34 c-43 65 -63 69 -334 69 l-243 0 0 108 c0
119 -15 189 -57 261 -55 95 -154 177 -251 207 -62 19 -175 25 -232 14z m160
-308 c19 -9 45 -32 57 -51 20 -30 23 -47 23 -132 l0 -99 -150 0 -150 0 0 78
c0 91 11 136 42 170 48 51 117 65 178 34z m-518 -682 c3 -80 8 -105 24 -127
70 -93 190 -95 251 -4 20 30 23 47 23 132 l0 99 149 0 149 0 4 -100 c3 -80 8
-105 24 -127 70 -93 190 -95 251 -4 20 30 23 47 23 132 l0 99 150 0 150 0 0
-755 0 -755 -750 0 -750 0 0 755 0 755 149 0 149 0 4 -100z"/>
<path d="M4455 2694 c-324 -49 -625 -231 -822 -495 l-66 -88 -956 -4 c-1035
-3 -975 0 -1111 -57 -121 -51 -177 -101 -672 -597 -423 -424 -487 -493 -493
-525 -15 -82 -19 -77 398 -496 216 -216 409 -402 429 -413 47 -24 89 -24 136
0 20 11 165 148 322 305 l285 286 666 0 c552 0 682 3 755 15 295 51 547 213
708 455 77 115 766 1442 766 1474 0 49 -36 110 -79 134 -46 26 -125 28 -266 6z
m-78 -331 c-3 -5 -129 -246 -282 -538 -153 -291 -296 -557 -319 -590 -76 -114
-210 -221 -340 -271 -129 -51 -174 -54 -925 -54 -520 -1 -703 -4 -724 -13 -15
-7 -147 -128 -292 -270 l-265 -259 -265 259 c-146 142 -265 263 -265 268 0 6
186 196 413 422 372 372 419 415 478 442 35 17 89 35 119 41 35 6 354 9 877 8
l821 -3 -67 -125 c-52 -96 -75 -129 -102 -145 -33 -19 -55 -20 -591 -25 -543
-5 -557 -6 -584 -26 -50 -37 -68 -70 -68 -124 0 -54 18 -87 68 -124 27 -21 40
-21 579 -24 395 -2 568 0 607 8 112 24 217 93 279 184 15 22 83 147 151 276
68 129 138 258 155 285 104 163 274 303 457 376 77 30 92 34 85 22z"/>
</g>
</svg>
